<svg width="40" height="39" viewBox="0 0 40 39" fill="none" xmlns="http://www.w3.org/2000/svg">
<rect x="1.41939" y="1.06868" width="37.1612" height="37.1612" rx="18.5806" fill="#2D5437"/>
<rect x="1.41939" y="1.06868" width="37.1612" height="37.1612" rx="18.5806" stroke="#053411" stroke-width="1.16123"/>
<g filter="url(#filter0_ii_19_1127)">
<rect x="3" y="2.22992" width="34" height="34.8388" rx="17" fill="#053411"/>
<path d="M20 22.3159C19.6333 22.3159 19.3196 22.1855 19.0587 21.9246C18.7978 21.6637 18.6671 21.3497 18.6667 20.9826C18.6662 20.6155 18.7969 20.3017 19.0587 20.0412C19.3204 19.7808 19.6342 19.6501 20 19.6492C20.3658 19.6483 20.6798 19.779 20.942 20.0412C21.2042 20.3035 21.3347 20.6172 21.3333 20.9826C21.332 21.3479 21.2016 21.6619 20.942 21.9246C20.6824 22.1872 20.3684 22.3177 20 22.3159ZM16.9167 16.3159H23.0833L24.4167 13.6492H15.5833L16.9167 16.3159ZM17.6 25.6492H22.4C23.4 25.6492 24.25 25.3021 24.95 24.6079C25.65 23.9137 26 23.0608 26 22.0492C26 21.627 25.9278 21.2159 25.7833 20.8159C25.6389 20.4159 25.4333 20.0548 25.1667 19.7326L23.4333 17.6492H16.5667L14.8333 19.7326C14.5667 20.0548 14.3611 20.4159 14.2167 20.8159C14.0722 21.2159 14 21.627 14 22.0492C14 23.0603 14.3473 23.9132 15.042 24.6079C15.7367 25.3026 16.5893 25.6497 17.6 25.6492Z" fill="white"/>
</g>
<defs>
<filter id="filter0_ii_19_1127" x="3" y="-6.24703" width="34" height="49.0638" filterUnits="userSpaceOnUse" color-interpolation-filters="sRGB">
<feFlood flood-opacity="0" result="BackgroundImageFix"/>
<feBlend mode="normal" in="SourceGraphic" in2="BackgroundImageFix" result="shape"/>
<feColorMatrix in="SourceAlpha" type="matrix" values="0 0 0 0 0 0 0 0 0 0 0 0 0 0 0 0 0 0 127 0" result="hardAlpha"/>
<feOffset dy="-11.0316"/>
<feGaussianBlur stdDeviation="4.23847"/>
<feComposite in2="hardAlpha" operator="arithmetic" k2="-1" k3="1"/>
<feColorMatrix type="matrix" values="0 0 0 0 1 0 0 0 0 1 0 0 0 0 1 0 0 0 0.16 0"/>
<feBlend mode="normal" in2="shape" result="effect1_innerShadow_19_1127"/>
<feColorMatrix in="SourceAlpha" type="matrix" values="0 0 0 0 0 0 0 0 0 0 0 0 0 0 0 0 0 0 127 0" result="hardAlpha"/>
<feOffset dy="8.12858"/>
<feGaussianBlur stdDeviation="2.87403"/>
<feComposite in2="hardAlpha" operator="arithmetic" k2="-1" k3="1"/>
<feColorMatrix type="matrix" values="0 0 0 0 0 0 0 0 0 0 0 0 0 0 0 0 0 0 0.25 0"/>
<feBlend mode="normal" in2="effect1_innerShadow_19_1127" result="effect2_innerShadow_19_1127"/>
</filter>
</defs>
</svg>
