<svg width="186" height="176" viewBox="0 0 186 176" fill="none" xmlns="http://www.w3.org/2000/svg">
<mask id="path-1-inside-1_27_287" fill="white">
<path d="M179.657 58.6574C183.16 58.6574 186.02 55.815 185.808 52.3184C185.105 40.7424 182.483 29.3484 178.033 18.6068C172.774 5.90924 165.065 -5.62807 155.346 -15.3464C145.628 -25.0647 134.091 -32.7737 121.393 -38.0332C110.652 -42.4825 99.2577 -45.1052 87.6817 -45.8076C84.1851 -46.0198 81.3427 -43.16 81.3427 -39.6569L81.3427 52.3145C81.3427 55.8176 84.1825 58.6574 87.6855 58.6574H179.657Z"/>
</mask>
<path d="M179.657 58.6574C183.16 58.6574 186.02 55.815 185.808 52.3184C185.105 40.7424 182.483 29.3484 178.033 18.6068C172.774 5.90924 165.065 -5.62807 155.346 -15.3464C145.628 -25.0647 134.091 -32.7737 121.393 -38.0332C110.652 -42.4825 99.2577 -45.1052 87.6817 -45.8076C84.1851 -46.0198 81.3427 -43.16 81.3427 -39.6569L81.3427 52.3145C81.3427 55.8176 84.1825 58.6574 87.6855 58.6574H179.657Z" fill="#253235" stroke="#3F4B4D" stroke-width="1.22952" mask="url(#path-1-inside-1_27_287)"/>
<mask id="path-2-inside-2_27_287" fill="white">
<path d="M-29.6572 71.3433C-33.1603 71.3433 -36.0201 74.1857 -35.8079 77.6824C-35.1055 89.2583 -32.4828 100.652 -28.0335 111.394C-22.774 124.091 -15.065 135.629 -5.34671 145.347C4.37161 155.065 15.9089 162.774 28.6065 168.034C39.3481 172.483 50.7421 175.106 62.318 175.808C65.8147 176.021 68.6571 173.161 68.6571 169.658L68.6571 77.6862C68.6571 74.1831 65.8173 71.3433 62.3142 71.3433H-29.6572Z"/>
</mask>
<path d="M-29.6572 71.3433C-33.1603 71.3433 -36.0201 74.1857 -35.8079 77.6824C-35.1055 89.2583 -32.4828 100.652 -28.0335 111.394C-22.774 124.091 -15.065 135.629 -5.34671 145.347C4.37161 155.065 15.9089 162.774 28.6065 168.034C39.3481 172.483 50.7421 175.106 62.318 175.808C65.8147 176.021 68.6571 173.161 68.6571 169.658L68.6571 77.6862C68.6571 74.1831 65.8173 71.3433 62.3142 71.3433H-29.6572Z" fill="#253235" stroke="#3F4B4D" stroke-width="1.22952" mask="url(#path-2-inside-2_27_287)"/>
<mask id="path-3-inside-3_27_287" fill="white">
<path d="M-29.6575 58.6574C-33.1605 58.6574 -36.0204 55.815 -35.8082 52.3184C-35.1057 40.7424 -32.4831 29.3484 -28.0338 18.6068C-22.7743 5.90924 -15.0653 -5.62807 -5.34695 -15.3464C4.37137 -25.0647 15.9087 -32.7737 28.6063 -38.0332C39.3479 -42.4825 50.7419 -45.1052 62.3178 -45.8076C65.8144 -46.0198 68.6568 -43.16 68.6568 -39.6569L68.6568 52.3145C68.6568 55.8176 65.817 58.6574 62.314 58.6574H-29.6575Z"/>
</mask>
<path d="M-29.6575 58.6574C-33.1605 58.6574 -36.0204 55.815 -35.8082 52.3184C-35.1057 40.7424 -32.4831 29.3484 -28.0338 18.6068C-22.7743 5.90924 -15.0653 -5.62807 -5.34695 -15.3464C4.37137 -25.0647 15.9087 -32.7737 28.6063 -38.0332C39.3479 -42.4825 50.7419 -45.1052 62.3178 -45.8076C65.8144 -46.0198 68.6568 -43.16 68.6568 -39.6569L68.6568 52.3145C68.6568 55.8176 65.817 58.6574 62.314 58.6574H-29.6575Z" fill="white" fill-opacity="0.08" stroke="white" stroke-opacity="0.12" stroke-width="1.22952" mask="url(#path-3-inside-3_27_287)"/>
<mask id="path-4-inside-4_27_287" fill="white">
<path d="M86.6287 174.944C83.1256 174.944 80.2658 172.101 80.478 168.604C81.1804 157.029 83.8031 145.635 88.2524 134.893C93.5119 122.195 101.221 110.658 110.939 100.94C120.658 91.2214 132.195 83.5124 144.892 78.2529C155.634 73.8036 167.028 71.181 178.604 70.4785C182.101 70.2663 184.943 73.1262 184.943 76.6292L184.943 168.601C184.943 172.104 182.103 174.944 178.6 174.944H86.6287Z"/>
</mask>
<path d="M86.6287 174.944C83.1256 174.944 80.2658 172.101 80.478 168.604C81.1804 157.029 83.8031 145.635 88.2524 134.893C93.5119 122.195 101.221 110.658 110.939 100.94C120.658 91.2214 132.195 83.5124 144.892 78.2529C155.634 73.8036 167.028 71.181 178.604 70.4785C182.101 70.2663 184.943 73.1262 184.943 76.6292L184.943 168.601C184.943 172.104 182.103 174.944 178.6 174.944H86.6287Z" fill="#253235" stroke="#3F4B4D" stroke-width="1.22952" mask="url(#path-4-inside-4_27_287)"/>
</svg>
