<svg width="40" height="39" viewBox="0 0 40 39" fill="none" xmlns="http://www.w3.org/2000/svg">
<rect x="1.41939" y="1.06868" width="37.1612" height="37.1612" rx="18.5806" fill="#2D5437"/>
<rect x="1.41939" y="1.06868" width="37.1612" height="37.1612" rx="18.5806" stroke="#053411" stroke-width="1.16123"/>
<g filter="url(#filter0_ii_19_1157)">
<rect x="2.58057" y="2.22992" width="34.8388" height="34.8388" rx="17.4194" fill="#053411"/>
<g clip-path="url(#clip0_19_1157)">
<path d="M23.1266 22.0143C23.6466 22.0143 24.1046 22.279 24.3732 22.681H20.2899C19.8479 22.681 19.4239 22.8566 19.1114 23.1691C18.7988 23.4817 18.6232 23.9056 18.6232 24.3476V27.0143C18.6232 27.1223 18.6332 27.2272 18.6532 27.329C16.6939 27.205 15.2292 26.4956 14.2999 25.191C14.0784 24.8804 13.9593 24.5084 13.9592 24.127V23.5136C13.9594 23.116 14.1174 22.7348 14.3986 22.4536C14.6797 22.1725 15.061 22.0145 15.4586 22.0143H23.1266ZM19.2899 14.0176C19.7276 14.0176 20.1611 14.1039 20.5655 14.2714C20.9699 14.4389 21.3374 14.6844 21.6469 14.9939C21.9564 15.3035 22.202 15.6709 22.3695 16.0754C22.537 16.4798 22.6232 16.9132 22.6232 17.351C22.6232 17.7887 22.537 18.2222 22.3695 18.6266C22.202 19.031 21.9564 19.3985 21.6469 19.708C21.3374 20.0175 20.9699 20.2631 20.5655 20.4306C20.1611 20.5981 19.7276 20.6843 19.2899 20.6843C18.4058 20.6843 17.558 20.3331 16.9329 19.708C16.3078 19.0829 15.9566 18.235 15.9566 17.351C15.9566 16.4669 16.3078 15.6191 16.9329 14.9939C17.558 14.3688 18.4058 14.0176 19.2899 14.0176ZM19.2899 24.3476C19.2899 24.0824 19.3953 23.8281 19.5828 23.6405C19.7703 23.453 20.0247 23.3476 20.2899 23.3476H25.6232C25.8884 23.3476 26.1428 23.453 26.3303 23.6405C26.5179 23.8281 26.6232 24.0824 26.6232 24.3476V27.0143C26.6232 27.2795 26.5179 27.5339 26.3303 27.7214C26.1428 27.9089 25.8884 28.0143 25.6232 28.0143H20.2899C20.0247 28.0143 19.7703 27.9089 19.5828 27.7214C19.3953 27.5339 19.2899 27.2795 19.2899 27.0143V24.3476ZM25.9566 24.681C25.7798 24.681 25.6102 24.6107 25.4852 24.4857C25.3601 24.3607 25.2899 24.1911 25.2899 24.0143H24.6232C24.6232 24.3679 24.7637 24.7071 25.0138 24.9571C25.2638 25.2072 25.6029 25.3476 25.9566 25.3476V24.681ZM25.9566 26.0143C25.6029 26.0143 25.2638 26.1548 25.0138 26.4048C24.7637 26.6549 24.6232 26.994 24.6232 27.3476H25.2899C25.2899 27.1708 25.3601 27.0013 25.4852 26.8762C25.6102 26.7512 25.7798 26.681 25.9566 26.681V26.0143ZM20.6232 24.0143C20.6232 24.1911 20.553 24.3607 20.428 24.4857C20.3029 24.6107 20.1334 24.681 19.9566 24.681V25.3476C20.3102 25.3476 20.6493 25.2072 20.8994 24.9571C21.1494 24.7071 21.2899 24.3679 21.2899 24.0143H20.6232ZM21.2899 27.3476C21.2899 26.994 21.1494 26.6549 20.8994 26.4048C20.6493 26.1548 20.3102 26.0143 19.9566 26.0143V26.681C20.1334 26.681 20.3029 26.7512 20.428 26.8762C20.553 27.0013 20.6232 27.1708 20.6232 27.3476H21.2899ZM24.1232 25.681C24.1232 25.3716 24.0003 25.0748 23.7815 24.856C23.5627 24.6372 23.266 24.5143 22.9566 24.5143C22.6471 24.5143 22.3504 24.6372 22.1316 24.856C21.9128 25.0748 21.7899 25.3716 21.7899 25.681C21.7899 25.9904 21.9128 26.2871 22.1316 26.5059C22.3504 26.7247 22.6471 26.8476 22.9566 26.8476C23.266 26.8476 23.5627 26.7247 23.7815 26.5059C24.0003 26.2871 24.1232 25.9904 24.1232 25.681Z" fill="white"/>
</g>
</g>
<defs>
<filter id="filter0_ii_19_1157" x="2.58057" y="-6.24703" width="34.8389" height="49.0638" filterUnits="userSpaceOnUse" color-interpolation-filters="sRGB">
<feFlood flood-opacity="0" result="BackgroundImageFix"/>
<feBlend mode="normal" in="SourceGraphic" in2="BackgroundImageFix" result="shape"/>
<feColorMatrix in="SourceAlpha" type="matrix" values="0 0 0 0 0 0 0 0 0 0 0 0 0 0 0 0 0 0 127 0" result="hardAlpha"/>
<feOffset dy="-11.0316"/>
<feGaussianBlur stdDeviation="4.23847"/>
<feComposite in2="hardAlpha" operator="arithmetic" k2="-1" k3="1"/>
<feColorMatrix type="matrix" values="0 0 0 0 1 0 0 0 0 1 0 0 0 0 1 0 0 0 0.16 0"/>
<feBlend mode="normal" in2="shape" result="effect1_innerShadow_19_1157"/>
<feColorMatrix in="SourceAlpha" type="matrix" values="0 0 0 0 0 0 0 0 0 0 0 0 0 0 0 0 0 0 127 0" result="hardAlpha"/>
<feOffset dy="8.12858"/>
<feGaussianBlur stdDeviation="2.87403"/>
<feComposite in2="hardAlpha" operator="arithmetic" k2="-1" k3="1"/>
<feColorMatrix type="matrix" values="0 0 0 0 0 0 0 0 0 0 0 0 0 0 0 0 0 0 0.25 0"/>
<feBlend mode="normal" in2="effect1_innerShadow_19_1157" result="effect2_innerShadow_19_1157"/>
</filter>
<clipPath id="clip0_19_1157">
<rect width="16" height="16" fill="white" transform="translate(11.2898 12.681)"/>
</clipPath>
</defs>
</svg>
