<svg width="362" height="358" viewBox="0 0 362 358" fill="none" xmlns="http://www.w3.org/2000/svg">
<path d="M350.798 170.74C356.496 170.74 361.148 166.117 360.803 160.429C359.661 141.599 355.395 123.065 348.157 105.592C339.602 84.9377 327.062 66.1706 311.254 50.3623C295.445 34.554 276.678 22.0142 256.024 13.4588C238.551 6.22134 220.017 1.95519 201.187 0.812585C195.499 0.467449 190.875 5.11938 190.875 10.8176V160.423C190.875 166.121 195.495 170.74 201.193 170.74H350.798Z" fill="black" fill-opacity="0.08"/>
<path d="M10.3172 191.376C4.61899 191.376 -0.032959 196 0.312195 201.688C1.4548 220.518 5.72095 239.052 12.9584 256.524C21.5138 277.179 34.0536 295.946 49.8619 311.754C65.6702 327.563 84.4373 340.102 105.092 348.658C122.565 355.895 141.099 360.161 159.929 361.304C165.616 361.649 170.24 356.997 170.24 351.299V201.694C170.24 195.996 165.621 191.376 159.922 191.376H10.3172Z" fill="black" fill-opacity="0.08"/>
<path d="M10.3172 170.74C4.61899 170.74 -0.032959 166.117 0.312195 160.429C1.4548 141.599 5.72095 123.065 12.9584 105.592C21.5138 84.9377 34.0536 66.1706 49.8619 50.3623C65.6702 34.554 84.4373 22.0142 105.092 13.4588C122.565 6.22134 141.099 1.95519 159.929 0.812585C165.616 0.467449 170.24 5.11938 170.24 10.8176V160.423C170.24 166.121 165.621 170.74 159.922 170.74H10.3172Z" fill="black" fill-opacity="0.08"/>
<path d="M199.474 359.897C193.775 359.897 189.124 355.274 189.469 349.586C190.611 330.756 194.877 312.222 202.115 294.749C210.67 274.094 223.21 255.327 239.018 239.519C254.827 223.711 273.594 211.171 294.248 202.615C311.721 195.378 330.255 191.112 349.085 189.969C354.773 189.624 359.397 194.276 359.397 199.974V349.579C359.397 355.278 354.777 359.897 349.079 359.897H199.474Z" fill="black" fill-opacity="0.08"/>
</svg>
