<svg width="35" height="35" viewBox="0 0 35 35" fill="none" xmlns="http://www.w3.org/2000/svg">
<path d="M33.1413 16.5833C33.6796 16.5833 34.1191 16.1465 34.0865 15.6091C33.9785 13.8302 33.5755 12.0792 32.8917 10.4285C32.0835 8.47716 30.8988 6.70415 29.4053 5.21068C27.9119 3.71721 26.1388 2.53253 24.1875 1.72427C22.5368 1.04051 20.7858 0.637475 19.0069 0.529528C18.4695 0.496922 18.0327 0.936408 18.0327 1.47474V15.6085C18.0327 16.1469 18.4691 16.5833 19.0075 16.5833H33.1413Z" fill="#2FCC40"/>
<path d="M0.974705 18.5328C0.436369 18.5328 -0.00311661 18.9696 0.0294914 19.507C0.137436 21.2859 0.540476 23.0369 1.22423 24.6876C2.03249 26.6389 3.21717 28.4119 4.71064 29.9054C6.20411 31.3989 7.97712 32.5836 9.92843 33.3918C11.5792 34.0756 13.3301 34.4786 15.1091 34.5866C15.6464 34.6192 16.0832 34.1797 16.0832 33.6413V19.5076C16.0832 18.9692 15.6468 18.5328 15.1085 18.5328H0.974705Z" fill="#2FCC40"/>
<path d="M0.974705 16.5833C0.436369 16.5833 -0.00311661 16.1465 0.0294914 15.6091C0.137436 13.8302 0.540476 12.0792 1.22423 10.4285C2.03249 8.47716 3.21717 6.70415 4.71064 5.21068C6.20411 3.71721 7.97712 2.53253 9.92843 1.72427C11.5792 1.04051 13.3301 0.637475 15.1091 0.529528C15.6464 0.496922 16.0832 0.936408 16.0832 1.47474V15.6085C16.0832 16.1469 15.6468 16.5833 15.1085 16.5833H0.974705Z" fill="#2FCC40"/>
<path d="M18.8451 34.4536C18.3067 34.4536 17.8672 34.0168 17.8999 33.4795C18.0078 31.7005 18.4108 29.9496 19.0946 28.2988C19.9028 26.3475 21.0875 24.5745 22.581 23.081C24.0745 21.5876 25.8475 20.4029 27.7988 19.5946C29.4495 18.9109 31.2005 18.5078 32.9794 18.3999C33.5168 18.3673 33.9536 18.8068 33.9536 19.3451V33.4789C33.9536 34.0172 33.5172 34.4536 32.9789 34.4536H18.8451Z" fill="#2FCC40"/>
</svg>
