<svg width="60" height="60" viewBox="0 0 60 60" fill="none" xmlns="http://www.w3.org/2000/svg">
<rect y="0.000244141" width="60" height="60.0034" rx="30" fill="#122023" fill-opacity="0.08"/>
<path d="M31.0112 22.1762C31.0673 21.4001 31.3236 20.6519 31.7551 20.0044C32.1866 19.357 32.7787 18.8325 33.4734 18.4822C34.1682 18.1319 34.9419 17.9677 35.719 18.0056C36.4962 18.0435 37.2502 18.2823 37.9075 18.6987C37.9826 18.7479 38.0432 18.8164 38.0827 18.897C38.1222 18.9776 38.1393 19.0674 38.1322 19.157C38.125 19.2465 38.0938 19.3324 38.042 19.4057C37.9902 19.4791 37.9195 19.5371 37.8375 19.5737C36.6949 20.0878 35.7249 20.9208 35.0442 21.9727C34.3634 23.0246 34.0009 24.2507 34 25.5037C34 25.6499 34 25.7962 34.015 25.9399C34.0219 26.0308 34.0038 26.1218 33.9627 26.2031C33.9217 26.2845 33.8591 26.353 33.7819 26.4014C33.7047 26.4498 33.6158 26.4762 33.5247 26.4777C33.4335 26.4792 33.3438 26.4558 33.265 26.4099C32.5283 25.9886 31.9258 25.3675 31.5271 24.6183C31.1283 23.8692 30.9495 23.0226 31.0112 22.1762ZM45 35.0799C45.0018 35.6514 44.8435 36.2118 44.543 36.6979C44.2426 37.1839 43.8119 37.5761 43.3 37.8299L43.245 37.8549L38.3912 39.9224C38.3433 39.9435 38.2935 39.9603 38.2425 39.9724L30.2425 41.9724C30.1632 41.9927 30.0818 42.0032 30 42.0037H17C16.4696 42.0037 15.9609 41.793 15.5858 41.4179C15.2107 41.0428 15 40.5341 15 40.0037V35.0037C15 34.4733 15.2107 33.9645 15.5858 33.5895C15.9609 33.2144 16.4696 33.0037 17 33.0037H20.5862L23.4137 30.1749C23.7845 29.8025 24.2254 29.5073 24.7109 29.3062C25.1964 29.1052 25.717 29.0024 26.2425 29.0037H32.5C33.0282 29.0036 33.5496 29.1231 34.0251 29.3532C34.5005 29.5833 34.9177 29.9181 35.2454 30.3323C35.5731 30.7466 35.8028 31.2297 35.9172 31.7454C36.0317 32.261 36.0279 32.7959 35.9062 33.3099L41.1362 32.1074C41.5915 31.9869 42.0685 31.9724 42.5302 32.0653C42.992 32.1582 43.4262 32.3558 43.7995 32.643C44.1728 32.9302 44.4752 33.2993 44.6833 33.7218C44.8915 34.1443 44.9998 34.6089 45 35.0799ZM43 35.0799C42.9998 34.9146 42.9616 34.7515 42.8882 34.6033C42.8148 34.4552 42.7083 34.3259 42.5769 34.2256C42.4455 34.1252 42.2927 34.0565 42.1305 34.0247C41.9682 33.993 41.8008 33.999 41.6412 34.0424L41.6025 34.0524L33.2275 35.9787C33.154 35.9951 33.079 36.0035 33.0037 36.0037H29C28.7348 36.0037 28.4804 35.8983 28.2929 35.7108C28.1054 35.5233 28 35.2689 28 35.0037C28 34.7385 28.1054 34.4841 28.2929 34.2966C28.4804 34.109 28.7348 34.0037 29 34.0037H32.5C32.8978 34.0037 33.2794 33.8456 33.5607 33.5643C33.842 33.283 34 32.9015 34 32.5037C34 32.1059 33.842 31.7243 33.5607 31.443C33.2794 31.1617 32.8978 31.0037 32.5 31.0037H26.2425C25.9798 31.0028 25.7195 31.0542 25.4768 31.1549C25.2341 31.2555 25.0138 31.4034 24.8287 31.5899L22 34.4174V40.0037H29.875L37.6787 38.0524L42.4287 36.0299C42.6016 35.9388 42.7463 35.8022 42.847 35.6347C42.9477 35.4672 43.0006 35.2754 43 35.0799ZM36 25.5037C36 26.3937 36.2639 27.2637 36.7584 28.0038C37.2529 28.7438 37.9557 29.3205 38.7779 29.6611C39.6002 30.0017 40.505 30.0909 41.3779 29.9172C42.2508 29.7436 43.0526 29.315 43.682 28.6857C44.3113 28.0563 44.7399 27.2545 44.9135 26.3816C45.0872 25.5087 44.9981 24.6039 44.6575 23.7816C44.3169 22.9593 43.7401 22.2565 43.0001 21.7621C42.26 21.2676 41.39 21.0037 40.5 21.0037C39.3065 21.0037 38.1619 21.4778 37.318 22.3217C36.4741 23.1656 36 24.3102 36 25.5037Z" fill="#122023"/>
</svg>
