<svg width="333" height="208" viewBox="0 0 333 208" fill="none" xmlns="http://www.w3.org/2000/svg">
<path d="M65.9808 30.6738L0 110.793V193.868L30.6251 158.004C33.2004 154.988 36.0328 152.115 39.5514 150.286C53.9092 142.822 63.2035 151.825 67.2447 159.621C68.2259 161.514 68.7202 163.604 69.0628 165.709L71.7254 182.065C73.0872 205.216 92.6074 221.105 116.667 190.236L331.389 -29.0259H218.808L141.181 63.5816C131.648 74.0226 110.312 75.8384 104.41 50.4168L99.132 35.9893C98.1142 33.2074 96.9103 30.4414 94.9183 28.2489C88.7532 21.4632 81.1411 21.4568 75.4714 23.257C71.5648 24.4974 68.5863 27.5098 65.9808 30.6738Z" fill="white" fill-opacity="0.08" stroke="white" stroke-opacity="0.12" stroke-width="0.907916"/>
</svg>
